<svg width="168" height="168" viewBox="0 0 168 168" fill="none" xmlns="http://www.w3.org/2000/svg">
<path d="M160.487 83.8C160.487 62.6347 151.907 43.4724 138.036 29.5638C124.128 15.6929 104.965 7.11339 83.8 7.11339C62.6346 7.11339 43.4724 15.6929 29.5638 29.5638C15.6929 43.4724 7.11339 62.6347 7.11339 83.8C7.11339 104.965 15.6929 124.128 29.5638 138.036C43.4724 151.907 62.6346 160.487 83.8 160.487C104.965 160.487 124.128 151.907 138.036 138.036C151.907 124.128 160.487 104.965 160.487 83.8ZM65.5071 113.696L112.033 83.8L65.5071 53.8661V113.696ZM120.008 86.5969L64.1465 122.465C63.6173 122.88 62.937 123.107 62.1811 123.107C60.3291 123.107 58.8551 121.633 58.8551 119.781V47.7811C58.8551 47.1764 59.0063 46.5339 59.3843 45.9669C60.3669 44.4551 62.4457 44.0016 63.9953 44.9843L119.932 80.9654L120.008 86.5969ZM120.991 81.9858C121.973 83.5354 121.52 85.6142 120.008 86.5969L120.991 81.9858ZM142.723 24.8772C157.803 39.9575 167.139 60.7827 167.139 83.8C167.139 106.817 157.803 127.643 142.723 142.723C127.643 157.803 106.817 167.139 83.8 167.139C60.7827 167.139 39.9575 157.803 24.8772 142.723C9.79685 127.643 0.461418 106.817 0.461418 83.8C0.461418 60.7827 9.79685 39.9575 24.8772 24.8772C39.9575 9.79686 60.7827 0.461426 83.8 0.461426C106.817 0.461426 127.643 9.79686 142.723 24.8772Z" fill="white"/>
</svg>
